<svg width="40" height="40" viewBox="0 0 40 40" fill="none" xmlns="http://www.w3.org/2000/svg">
<mask id="mask0_150_224" style="mask-type:alpha" maskUnits="userSpaceOnUse" x="0" y="0" width="40" height="40">
<rect width="40" height="40" fill="white" fill-opacity="0.9"/>
</mask>
<g mask="url(#mask0_150_224)">
<path d="M6.99988 35V19.375L3.99988 21.6667L1.99988 19L20.3332 5L38.6665 19L36.6665 21.625L33.6665 19.375V35H6.99988ZM10.3332 31.6667H30.3332V16.8333L20.3332 9.20833L10.3332 16.8333V31.6667ZM13.6665 25C13.1943 25 12.7985 24.8403 12.479 24.5208C12.1596 24.2014 11.9999 23.8056 11.9999 23.3333C11.9999 22.8611 12.1596 22.4653 12.479 22.1458C12.7985 21.8264 13.1943 21.6667 13.6665 21.6667C14.1388 21.6667 14.5346 21.8264 14.854 22.1458C15.1735 22.4653 15.3332 22.8611 15.3332 23.3333C15.3332 23.8056 15.1735 24.2014 14.854 24.5208C14.5346 24.8403 14.1388 25 13.6665 25ZM20.3332 25C19.861 25 19.4652 24.8403 19.1457 24.5208C18.8263 24.2014 18.6665 23.8056 18.6665 23.3333C18.6665 22.8611 18.8263 22.4653 19.1457 22.1458C19.4652 21.8264 19.861 21.6667 20.3332 21.6667C20.8054 21.6667 21.2013 21.8264 21.5207 22.1458C21.8402 22.4653 21.9999 22.8611 21.9999 23.3333C21.9999 23.8056 21.8402 24.2014 21.5207 24.5208C21.2013 24.8403 20.8054 25 20.3332 25ZM26.9999 25C26.5277 25 26.1318 24.8403 25.8124 24.5208C25.4929 24.2014 25.3332 23.8056 25.3332 23.3333C25.3332 22.8611 25.4929 22.4653 25.8124 22.1458C26.1318 21.8264 26.5277 21.6667 26.9999 21.6667C27.4721 21.6667 27.8679 21.8264 28.1874 22.1458C28.5068 22.4653 28.6665 22.8611 28.6665 23.3333C28.6665 23.8056 28.5068 24.2014 28.1874 24.5208C27.8679 24.8403 27.4721 25 26.9999 25Z" fill="white" fill-opacity="0.9"/>
</g>
</svg>
