<svg width="40" height="40" viewBox="0 0 40 40" fill="none" xmlns="http://www.w3.org/2000/svg">
<mask id="mask0_190_256" style="mask-type:alpha" maskUnits="userSpaceOnUse" x="0" y="0" width="40" height="40">
<rect width="40" height="40" fill="#D9D9D9"/>
</mask>
<g mask="url(#mask0_190_256)">
<path d="M7.29159 35L4.95825 32.6667L22.0416 15.5833C21.5416 14.4167 21.4721 13.0972 21.8333 11.625C22.1944 10.1528 22.986 8.83333 24.2083 7.66667C25.6805 6.19444 27.3194 5.33333 29.1249 5.08333C30.9305 4.83333 32.4027 5.27778 33.5416 6.41667C34.6805 7.55556 35.1249 9.02778 34.8749 10.8333C34.6249 12.6389 33.7638 14.2778 32.2916 15.75C31.1249 16.9722 29.8055 17.7639 28.3333 18.125C26.861 18.4861 25.5416 18.4167 24.3749 17.9167L22.2916 20L34.9583 32.6667L32.6249 35L19.9583 22.4167L7.29159 35ZM12.2083 20.75L7.20825 15.75C5.70825 14.25 4.95825 12.4583 4.95825 10.375C4.95825 8.29167 5.70825 6.5 7.20825 5L17.5416 15.4167L12.2083 20.75Z" fill="white" fill-opacity="0.9"/>
</g>
</svg>
