<svg width="40" height="40" viewBox="0 0 40 40" fill="none" xmlns="http://www.w3.org/2000/svg">
<mask id="mask0_115_36" style="mask-type:alpha" maskUnits="userSpaceOnUse" x="0" y="0" width="40" height="40">
<rect width="40" height="40" fill="#D9D9D9"/>
</mask>
<g mask="url(#mask0_115_36)">
<path d="M12.375 11.3333L17.0417 5.29167C17.375 4.84722 17.7708 4.52083 18.2292 4.3125C18.6875 4.10417 19.1667 4 19.6667 4C20.1667 4 20.6458 4.10417 21.1042 4.3125C21.5625 4.52083 21.9583 4.84722 22.2917 5.29167L26.9583 11.3333L34.0417 13.7083C34.7639 13.9306 35.3333 14.3403 35.75 14.9375C36.1667 15.5347 36.375 16.1944 36.375 16.9167C36.375 17.25 36.3264 17.5833 36.2292 17.9167C36.1319 18.25 35.9722 18.5694 35.75 18.875L31.1667 25.375L31.3333 32.2083C31.3611 33.1806 31.0417 34 30.375 34.6667C29.7083 35.3333 28.9306 35.6667 28.0417 35.6667C27.9861 35.6667 27.6806 35.625 27.125 35.5417L19.6667 33.4583L12.2083 35.5417C12.0694 35.5972 11.9167 35.6319 11.75 35.6458C11.5833 35.6597 11.4306 35.6667 11.2917 35.6667C10.4028 35.6667 9.625 35.3333 8.95833 34.6667C8.29167 34 7.97222 33.1806 8 32.2083L8.16667 25.3333L3.625 18.875C3.40278 18.5694 3.24306 18.25 3.14583 17.9167C3.04861 17.5833 3 17.25 3 16.9167C3 16.2222 3.20139 15.5764 3.60417 14.9792C4.00694 14.3819 4.56944 13.9583 5.29167 13.7083L12.375 11.3333ZM14.4167 14.2083L6.33333 16.875L11.5 24.3333L11.3333 32.2917L19.6667 30L28 32.3333L27.8333 24.3333L33 16.9583L24.9167 14.2083L19.6667 7.33333L14.4167 14.2083Z" fill="white" fill-opacity="0.9"/>
</g>
</svg>
